<?xml version="1.0" encoding="UTF-8"?>
<svg width="64px" height="64px" viewBox="0 0 64 64" version="1.1" xmlns="http://www.w3.org/2000/svg">
  <title>dehumidification_active</title>
  <g id="dehumidification_active" stroke="none" stroke-width="1" fill="none" fill-rule="evenodd">
    <path
      d="M32,6 C24.6695615,15.6157438 18,23.5066126 18,33 C18,41.836556 24.2680135,49 32,49 C39.7319865,49 46,41.836556 46,33 C46,23.5066126 39.3304385,15.6157438 32,6 Z M32,13.6 C27.5779741,20.1225902 20.9,27.3847814 20.9,33 C20.9,39.9529004 25.8747337,45.6 32,45.6 C38.1252663,45.6 43.1,39.9529004 43.1,33 C43.1,27.3847814 36.4220259,20.1225902 32,13.6 Z"
      id="Droplet"
      fill="#000000"
      fill-rule="evenodd"
    />
    <path
      d="M28.9,38.2 C29.2,39.6 30.2,40.8 31.9,41.7"
      id="Highlight"
      stroke="#000000"
      stroke-width="2.1"
      stroke-linecap="round"
      stroke-linejoin="round"
    />
    <rect
      id="Strike"
      x="6"
      y="30"
      width="52"
      height="4"
      rx="2"
      fill="#000000"
      transform="rotate(-45 32 32)"
    />
  </g>
</svg>
