<?xml version="1.0" encoding="UTF-8"?>
<svg width="64px" height="64px" viewBox="0 0 64 64" version="1.1" xmlns="http://www.w3.org/2000/svg">
    <title>measure_fan_speed_percent</title>
    <g id="measure_fan_speed_percent" stroke="none" stroke-width="1" fill="none" fill-rule="evenodd">
        <path d="M27.62463,34.4218376 C28.4774814,35.9593396 30.1172111,37 32,37 L31.9809282,37.001877 C31.8476366,40.3558516 31.0156706,42.2058863 29.4850299,43.7365269 C28.249983,44.9715739 26.6465982,45.9779623 25,46 C23.2935717,46.0228385 21.5433962,45.0164501 20.2634731,43.7365269 C17.748503,41.2215569 17.3293413,37.4491018 19.005988,35.7724551 C20.4645456,34.3138975 23.8263578,36.661849 27.435735,34.5378618 L27.62463,34.4218376 Z M37,32 L37.001877,32.0190718 C40.3558516,32.1523634 42.2058863,32.9843294 43.7365269,34.5149701 C44.9594261,35.7378693 45.9663654,37.3697761 46,39 C46.0355371,40.7224353 45.0285978,42.4444561 43.7365269,43.7365269 C41.2215569,46.251497 37.4491018,46.6706587 35.7724551,44.994012 C34.2884786,43.5100355 36.7448424,40.055889 34.4226968,36.3753422 C35.9588831,35.5232377 37,33.8832018 37,32 Z M32,29 C33.6568542,29 35,30.3431458 35,32 C35,33.6568542 33.6568542,35 32,35 C30.3431458,35 29,33.6568542 29,32 C29,30.3431458 30.3431458,29 32,29 Z M28.2275449,19.005988 C29.7115214,20.4899645 27.2551576,23.944111 29.5773032,27.6246578 C28.0406604,28.4774814 27,30.1172111 27,32 L26.9985099,31.9809436 C23.6442906,31.8477006 21.7941725,31.0157294 20.2634731,29.4850299 C19.0290881,28.250645 18.0226757,26.6457078 18,25 C17.9764756,23.2926972 18.982888,21.5440582 20.2634731,20.2634731 C22.7784431,17.748503 26.5508982,17.3293413 28.2275449,19.005988 Z M39,17.9999869 C40.675984,18.0004968 42.4795389,19.006485 43.7365269,20.2634731 C46.251497,22.7784431 46.6706587,26.5508982 44.994012,28.2275449 C43.5100355,29.7115214 40.055889,27.2551576 36.3753422,29.5773032 C35.5595979,28.107471 34.0238866,27.0914298 32.2441581,27.0058569 L32.0190323,26.9991187 C32.1521987,23.6445145 32.984178,21.7942651 34.5149701,20.2634731 C35.7729521,19.0054911 37.3226907,17.9995028 39,17.9999869 Z" id="Fan" fill="#000000" transform="translate(-8 0)"></path>
        <path d="M42,20 C46,18 51,18 55,20" id="WaveTop" stroke="#000000" stroke-width="3.5" stroke-linecap="round"></path>
        <path d="M40,28 C45,25.5 52,25.5 57,28" id="WaveUpperMid" stroke="#000000" stroke-width="3.5" stroke-linecap="round"></path>
        <path d="M40,36 C45,38.5 52,38.5 57,36" id="WaveLowerMid" stroke="#000000" stroke-width="3.5" stroke-linecap="round"></path>
        <path d="M42,44 C46,46 51,46 55,44" id="WaveBottom" stroke="#000000" stroke-width="3.5" stroke-linecap="round"></path>
    </g>
</svg>
