<?xml version="1.0" encoding="UTF-8"?>
<svg width="64px" height="64px" viewBox="0 0 64 64" version="1.1" xmlns="http://www.w3.org/2000/svg">
    <title>measure_motor_rpm</title>
    <g id="measure_motor_rpm" stroke="none" stroke-width="1" fill="none" fill-rule="evenodd">
        <path d="M48.9705627,15.0294373 C58.3431458,24.4020203 58.3431458,39.5979797 48.9705627,48.9705627 C48.1895142,49.7516113 46.9231842,49.7516113 46.1421356,48.9705627 C45.361087,48.1895142 45.361087,46.9231842 46.1421356,46.1421356 C53.9526215,38.3316498 53.9526215,25.6683502 46.1421356,17.8578644 C38.3316498,10.0473785 25.6683502,10.0473785 17.8578644,17.8578644 C10.0473785,25.6683502 10.0473785,38.3316498 17.8578644,46.1421356 C18.638913,46.9231842 18.638913,48.1895142 17.8578644,48.9705627 C17.0768158,49.7516113 15.8104858,49.7516113 15.0294373,48.9705627 C5.65685425,39.5979797 5.65685425,24.4020203 15.0294373,15.0294373 C24.4020203,5.65685425 39.5979797,5.65685425 48.9705627,15.0294373 Z M46.3503755,24.914384 C49.3037248,30.8942303 48.2915025,38.3359145 43.3137085,43.3137085 C42.9231842,43.7042328 42.2900192,43.7042328 41.8994949,43.3137085 C41.5089706,42.9231842 41.5089706,42.2900192 41.8994949,41.8994949 C46.0088576,37.7901323 47.0295407,31.7617103 44.9615444,26.6990361 L46.3503755,24.914384 Z M39.085616,17.6496245 L37.3009639,19.0384556 C32.2382897,16.9704593 26.2098677,17.9911424 22.1005051,22.1005051 C16.633165,27.5678451 16.633165,36.4321549 22.1005051,41.8994949 C22.4910294,42.2900192 22.4910294,42.9231842 22.1005051,43.3137085 C21.7099808,43.7042328 21.0768158,43.7042328 20.6862915,43.3137085 C14.4379028,37.0653198 14.4379028,26.9346802 20.6862915,20.6862915 C25.6640855,15.7084975 33.1057697,14.6962752 39.085616,17.6496245 Z M41.8172495,20.5931253 C42.2681973,20.2423882 42.9097466,20.2823296 43.3137085,20.6862915 C43.7176704,21.0902534 43.7576118,21.7318027 43.4068747,22.1827505 L34.5754268,33.5399515 C34.4512826,33.7472183 34.2999138,33.9427269 34.1213203,34.1213203 C32.9497475,35.2928932 31.0502525,35.2928932 29.8786797,34.1213203 C28.7071068,32.9497475 28.7071068,31.0502525 29.8786797,29.8786797 C30.059059,29.6983003 30.2566936,29.5456928 30.46627,29.420857 L41.8172495,20.5931253 Z" id="Shape" fill="#000000" fill-rule="nonzero"></path>
    </g>
</svg>
